Coordinates
version=1
nRows=19
nColumns=36
inDegrees=yes

Units are S.I. units (second, meters, Newtons, ...)
If the header above contains a line with 'inDegrees', this indicates whether rotational values are in degrees (yes) or radians (no).

endheader
time	pelvis_tilt	pelvis_list	pelvis_rotation	pelvis_tx	pelvis_ty	pelvis_tz	hip_flexion_r	hip_adduction_r	hip_rotation_r	knee_angle_r	knee_angle_r_beta	ankle_angle_r	subtalar_angle_r	mtp_angle_r	hip_flexion_l	hip_adduction_l	hip_rotation_l	knee_angle_l	knee_angle_l_beta	ankle_angle_l	subtalar_angle_l	mtp_angle_l	lumbar_extension	lumbar_bending	lumbar_rotation	arm_flex_r	arm_add_r	arm_rot_r	elbow_flex_r	pro_sup_r	arm_flex_l	arm_add_l	arm_rot_l	elbow_flex_l	pro_sup_l
      1.25000000	    -14.08563340	     -1.18101199	     -0.02399320	     -0.71857292	      1.35150239	     -0.56478364	     35.33051454	      1.21263988	      3.07571057	     59.20050332	      1.03324370	    -10.10279749	    -15.62316296	     -4.40723436	     33.81548816	     -1.55656940	      4.91660923	     54.61078700	      0.95313804	     -9.79977504	    -12.05269277	     -4.40723436	    -16.02846347	      1.64334368	     -3.92292383	     36.54394318	    -18.54766942	      3.98095261	    109.81020137	    105.43572763	     21.47887152	    -16.54077546	      9.09852870	    118.19080892	    101.36130797
      1.26000000	    -14.05809171	     -1.27208836	     -0.27032889	     -0.70926178	      1.35411143	     -0.56431278	     36.56718081	      1.19888203	      2.90886491	     58.42002083	      1.01962171	     -9.76381055	    -15.91609224	     -4.43139194	     34.49881693	     -1.91024576	      4.92344675	     52.72731917	      0.92026533	     -9.91126286	    -11.93526847	     -4.43139194	    -16.60630988	      1.65792939	     -3.80926280	     34.56955018	    -19.91998432	      3.31235772	    107.89470037	    105.43955913	     19.41061213	    -16.17935183	      7.83614372	    116.43437160	    101.21404347
      1.27000000	    -14.10744327	     -1.36809889	     -0.43583009	     -0.69965833	      1.35571814	     -0.56393517	     37.69999437	      1.16973639	      2.81168965	     57.22643469	      0.99878970	     -9.83521652	    -16.33877083	     -4.46876159	     35.14095239	     -2.31318602	      4.82270366	     50.48715020	      0.88116700	    -10.56274861	    -11.95115535	     -4.46876159	    -16.94561119	      1.71860006	     -3.79837954	     32.56969426	    -21.23113285	      2.59475373	    105.87281773	    105.54618432	     17.39288550	    -15.74911668	      6.32396371	    114.26282131	    101.03900927
      1.28000000	    -14.11800141	     -1.46138137	     -0.67240269	     -0.68965240	      1.35656533	     -0.56340212	     38.53020517	      1.15782011	      2.66713870	     55.44243979	      0.96765312	    -10.14976588	    -16.70140027	     -4.49865631	     35.50962139	     -2.71376066	      4.84632452	     47.89387034	      0.83590573	    -11.39700579	    -11.93734125	     -4.49865631	    -17.33376805	      1.76513846	     -3.69895994	     30.56661235	    -22.54209700	      1.93818182	    104.19863134	    105.65147330	     15.37120042	    -15.62193962	      4.99570758	    112.37934571	    100.86987169
      1.29000000	    -14.08401103	     -1.50123744	     -0.74774909	     -0.67933442	      1.35659670	     -0.56322714	     39.08292300	      1.05715134	      2.50631667	     53.21801827	      0.92882964	    -11.85713771	    -18.31445289	     -4.64286444	     35.65112248	     -2.92029329	      4.95324803	     44.89380237	      0.78354467	    -13.63725675	    -13.14609836	     -4.64286444	    -17.69115448	      1.75723850	     -3.60021499	     28.26780481	    -23.94021105	      0.79260576	    102.79130237	    106.69299230	     13.69043113	    -15.32161506	      3.96161466	    110.12476357	    101.02043678
      1.30000000	    -13.96263377	     -1.54831680	     -0.75504220	     -0.66860424	      1.35566608	     -0.56336566	     39.37977415	      0.81874570	      2.20777675	     50.79480708	      0.88653663	    -12.61458208	    -18.37253415	     -4.68689018	     35.66747525	     -3.13415275	      5.07705111	     41.93892356	      0.73197230	    -14.87095839	    -12.52044464	     -4.68689018	    -18.06525804	      1.83789989	     -3.69610958	     26.12725391	    -25.23169489	     -0.07965287	    101.44910673	    106.87747584	     11.89792156	    -14.99294575	      2.63097951	    108.06168877	    100.81047606
      1.31000000	    -13.78599062	     -1.61347413	     -0.84866785	     -0.65755081	      1.35367436	     -0.56339026	     39.51707786	      0.66774275	      2.08525871	     48.21561753	      0.84152128	    -13.76629129	    -18.51736978	     -4.73400125	     35.61147937	     -3.45120730	      5.03146298	     39.06470208	      0.68180767	    -16.26323694	    -11.86361458	     -4.73400125	    -18.43654038	      1.92865973	     -3.69242061	     23.86339373	    -26.50674177	     -1.02125354	    100.41779065	    106.98811395	     10.17890683	    -14.85048810	      1.44320693	    106.18066934	    100.56535973
      1.32000000	    -13.57082898	     -1.63132442	     -0.98659463	     -0.64624762	      1.35071332	     -0.56303694	     39.46782873	      0.61612819	      2.17090906	     45.39990861	      0.79237789	    -16.12553530	    -19.78006318	     -4.86656278	     35.41207493	     -3.78404766	      4.81457166	     36.09814104	      0.63003141	    -18.02660086	    -11.67443228	     -4.86656278	    -18.82480862	      1.88378498	     -3.20439092	     20.94322671	    -27.80698720	     -2.89776133	    100.03961441	    107.77385233	      8.94213669	    -14.89262067	      1.06168078	    104.15680876	    100.56336760
      1.33000000	    -13.36717249	     -1.58319431	     -1.04517859	     -0.63473841	      1.34652938	     -0.56278767	     39.36110104	      0.44059240	      2.23096997	     42.62395592	      0.74392837	    -17.81593910	    -19.69016834	     -5.04447858	     35.12948823	     -3.97604488	      4.69502748	     33.09164065	      0.57755808	    -19.46144083	    -10.93792057	     -5.04447858	    -19.08384785	      1.83369615	     -2.91615296	     18.07967670	    -28.79838786	     -4.84119798	     99.69570685	    108.59993764	      7.61938660	    -14.96683565	      0.50270313	    102.28311323	    100.60791199
      1.34000000	    -13.06508159	     -1.48395655	     -1.06127044	     -0.62301411	      1.34123719	     -0.56266687	     39.09801000	      0.17640154	      2.27174967	     39.89412072	      0.69628376	    -19.24195897	    -18.88373393	     -5.09004495	     34.71084690	     -4.08011570	      4.56277675	     30.15177785	      0.52624780	    -20.72920391	     -9.84909172	     -5.09004495	    -19.37734187	      1.79652560	     -3.21284552	     15.91851565	    -29.45249162	     -6.04954420	     99.15755767	    108.60359033	      5.80610746	    -15.19374502	     -0.66071738	    101.09497635	    100.42307464
      1.35000000	    -12.73936673	     -1.38619580	     -1.12266571	     -0.61111949	      1.33480587	     -0.56229706	     38.74506596	      0.01783807	      2.44884900	     37.13249119	      0.64808423	    -21.41358106	    -19.03028011	     -5.21435031	     34.28912098	     -4.23923241	      4.22479006	     27.38557605	      0.47796847	    -22.09005907	     -9.04181319	     -5.21435031	    -19.64387042	      1.71208758	     -3.01234088	     13.04055126	    -30.11445445	     -8.13646290	     99.35121606	    108.90107670	      4.44536818	    -15.55707454	     -0.99753082	     99.85340747	    100.34723758
      1.36000000	    -12.48266211	     -1.31570395	     -1.19931757	     -0.59914831	      1.32706470	     -0.56184472	     38.44148422	     -0.13107474	      2.59300339	     34.49388685	      0.60203190	    -22.62757077	    -17.96447001	     -5.24688071	     33.98557711	     -4.44190456	      3.82985938	     24.82848372	      0.43333879	    -23.14212269	     -7.75049455	     -5.24688071	    -19.73424853	      1.66840553	     -3.32576523	     10.91965946	    -30.54384111	     -9.28987749	     99.25321799	    108.84852258	      2.52503882	    -15.93729779	     -2.08017007	     99.21840969	    100.20599792
      1.37000000	    -12.03963846	     -1.24224956	     -1.30852270	     -0.58697337	      1.31845695	     -0.56115757	     37.86095719	     -0.20063311	      2.80727786	     31.83164349	      0.55556699	    -24.30629109	    -17.62352660	     -5.38320732	     33.42252956	     -4.68790360	      3.23186825	     22.32246416	      0.38960050	    -24.06517664	     -6.32906121	     -5.38320732	    -19.98888252	      1.54223301	     -2.86104549	      7.74900291	    -30.91654490	    -11.88787631	    100.03975995	    108.93250662	      1.37372717	    -16.34202158	     -2.13838504	     98.36524895	    100.19933424
      1.38000000	    -11.58912345	     -1.12958170	     -1.39887386	     -0.57459942	      1.30865960	     -0.56052628	     37.29739642	     -0.35343807	      2.89972838	     29.40256706	      0.51317160	    -25.20961472	    -16.21808724	     -5.42442341	     32.81255467	     -4.84050708	      2.72847556	     19.91296879	      0.34754687	    -24.94536699	     -5.07681454	     -5.42442341	    -20.10084657	      1.41731639	     -3.13309865	      5.65756303	    -31.07616787	    -13.19848253	    100.34426150	    108.80821223	     -0.49335274	    -16.65083788	     -3.20226460	     98.19503063	    100.13546574
      1.39000000	    -11.02592309	     -0.94954533	     -1.58114225	     -0.56197624	      1.29792089	     -0.55960875	     36.60415523	     -0.49198676	      3.04090781	     27.15196808	      0.47389124	    -25.59506341	    -14.62841707	     -5.48986882	     32.01778040	     -4.98256767	      2.11825577	     17.62965610	      0.30769554	    -25.41918428	     -3.57226692	     -5.48986882	    -20.29738688	      1.12619924	     -2.93422195	      2.98177830	    -31.10499965	    -15.25055401	    101.20307513	    108.86029028	     -1.91376672	    -17.01985447	     -3.64552493	     98.02334817	    100.35800809
      1.40000000	    -10.36866761	     -0.77283305	     -1.74611834	     -0.54919287	      1.28627668	     -0.55864044	     35.78865916	     -0.61954836	      3.07514403	     25.05062946	      0.43721596	    -26.07104878	    -13.55497180	     -5.51037898	     31.12351048	     -5.08911744	      1.64303505	     15.51879671	      0.27085410	    -25.99541511	     -2.39378647	     -5.51037898	    -20.57540857	      0.79989043	     -2.98041619	      0.70907496	    -30.87871477	    -16.94721095	    102.02415985	    109.10327209	     -3.50718807	    -17.26258530	     -4.41324570	     98.35554006	    100.51461010
      1.41000000	     -9.67094721	     -0.59130753	     -1.99171021	     -0.53642803	      1.27359934	     -0.55750636	     34.96619138	     -0.71527098	      3.08044777	     23.19802341	      0.40488189	    -26.09910311	    -12.30075844	     -5.62960510	     30.22644315	     -5.25176802	      1.09948875	     13.66031703	      0.23841751	    -26.19360551	     -0.67168487	     -5.62960510	    -20.83437924	      0.44062233	     -2.51998421	     -2.04913565	    -30.52556596	    -19.20282513	    103.43494877	    108.62842630	     -4.53096186	    -17.54662808	     -4.34614231	     98.70556694	     99.57152559
      1.42000000	     -8.79838426	     -0.39041632	     -2.28769239	     -0.52363870	      1.26009697	     -0.55624178	     33.96603962	     -0.80686185	      3.07970981	     21.50050248	      0.37525456	    -26.47418955	    -11.58849767	     -5.95584216	     29.12888931	     -5.37376554	      0.69529808	     11.93588553	      0.20832050	    -26.62726568	      0.56135106	     -5.95584216	    -21.19981913	      0.07368183	     -2.29049802	     -4.19554639	    -30.11336655	    -20.82627198	    104.80081890	    107.88731301	     -5.74928938	    -17.73058829	     -4.69903113	     99.52239615	     97.14106843
      1.43000000	     -7.93966997	     -0.17898350	     -2.60079273	     -0.51076015	      1.24555888	     -0.55480731	     32.97954088	     -0.89523276	      3.10964677	     19.95153611	      0.34822000	    -27.10876082	    -11.11577496	     -5.93869408	     28.02262579	     -5.46591286	      0.53707541	     10.29999935	      0.17976890	    -27.29234973	      1.33365483	     -5.93869408	    -21.46493892	     -0.33118537	     -2.45594434	     -5.61528988	    -29.61328081	    -21.71317829	    105.89884000	    108.58114474	     -7.29004987	    -17.82653073	     -5.78434552	    100.27660284	     97.57301245
